HIERARCHY
ROOT Hips
{
	OFFSET 0.000000 0.000000 0.000000
	CHANNELS 6 Xposition Yposition Zposition Zrotation Yrotation Xrotation 
	JOINT LeftUpLeg_virtual
	{
		OFFSET 0.000000 0.000000 0.000000
		CHANNELS 3 Zrotation Yrotation Xrotation
		JOINT LeftUpLeg
		{
			OFFSET 10.205400 -3.823500 0.155100
			CHANNELS 3 Zrotation Yrotation Xrotation
			JOINT LeftLeg
			{
				OFFSET 0.708757 -12.982077 0.567790
				CHANNELS 3 Zrotation Yrotation Xrotation
				JOINT LeftFoot
				{
					OFFSET -0.708756 -10.717838 -2.184338
					CHANNELS 3 Zrotation Yrotation Xrotation
					JOINT LeftToeBase
					{
						OFFSET 0.108149 -7.191104 7.560241
						CHANNELS 3 Zrotation Yrotation Xrotation
						End Site
						{
							OFFSET 0.000000 0.000000 0.000000
						}
					}
				}
			}
		}
	}
	JOINT RightUpLeg_virtual
	{
		OFFSET 0.000000 0.000000 0.000000
		CHANNELS 3 Zrotation Yrotation Xrotation
		JOINT RightUpLeg
		{
			OFFSET -10.205400 -3.823500 0.005500
			CHANNELS 3 Zrotation Yrotation Xrotation
			JOINT RightLeg
			{
				OFFSET -0.708756 -12.982134 0.610632
				CHANNELS 3 Zrotation Yrotation Xrotation
				JOINT RightFoot
				{
					OFFSET 0.708754 -10.717769 -1.945823
					CHANNELS 3 Zrotation Yrotation Xrotation
					JOINT RightToeBase
					{
						OFFSET -0.108140 -7.191069 7.372968
						CHANNELS 3 Zrotation Yrotation Xrotation
						End Site
						{
							OFFSET 0.000000 0.000000 0.000000
						}
					}
				}
			}
		}
	}
	JOINT Spine_virtual
	{
		OFFSET 0.000000 0.000000 0.000000
		CHANNELS 3 Zrotation Yrotation Xrotation
		JOINT Spine
		{
			OFFSET 0.000000 6.876099 0.125700
			CHANNELS 3 Zrotation Yrotation Xrotation
			JOINT Spine1
			{
				OFFSET 0.000000 8.022060 0.146608
				CHANNELS 3 Zrotation Yrotation Xrotation
				JOINT Spine2
				{
					OFFSET 0.000000 9.168068 0.167552
					CHANNELS 3 Zrotation Yrotation Xrotation
					JOINT Neck_virtual
					{
						OFFSET 0.000000 0.000000 0.000000
						CHANNELS 3 Zrotation Yrotation Xrotation
						JOINT Neck
						{
							OFFSET 0.000000 10.314075 0.188496
							CHANNELS 3 Zrotation Yrotation Xrotation
							JOINT Head
							{
								OFFSET 0.000000 7.643700 -2.377400
								CHANNELS 3 Zrotation Yrotation Xrotation
								End Site
								{
									OFFSET 0.000000 0.000000 0.000000
								}
							}
						}
					}
					JOINT LeftShoulder_virtual
					{
						OFFSET 0.000000 0.000000 0.000000
						CHANNELS 3 Zrotation Yrotation Xrotation
						JOINT LeftShoulder
						{
							OFFSET 4.392200 8.824978 0.174984
							CHANNELS 3 Zrotation Yrotation Xrotation
							JOINT LeftArm
							{
								OFFSET 8.771219 -2.981674 -0.026999
								CHANNELS 3 Zrotation Yrotation Xrotation
								JOINT LeftForeArm
								{
									OFFSET 8.512804 0.000000 -0.000000
									CHANNELS 3 Zrotation Yrotation Xrotation
									JOINT LeftHand
									{
										OFFSET 18.484802 0.000000 -0.000000
										CHANNELS 3 Zrotation Yrotation Xrotation
										End Site
										{
											OFFSET 0.000000 0.000000 0.000000
										}
									}
								}
							}
						}
					}
					JOINT RightShoulder_virtual
					{
						OFFSET 0.000000 0.000000 0.000000
						CHANNELS 3 Zrotation Yrotation Xrotation
						JOINT RightShoulder
						{
							OFFSET -4.392200 8.824993 0.141379
							CHANNELS 3 Zrotation Yrotation Xrotation
							JOINT RightArm
							{
								OFFSET -8.771282 -2.981682 -0.094208
								CHANNELS 3 Zrotation Yrotation Xrotation
								JOINT RightForeArm
								{
									OFFSET -8.494598 0.000000 0.000000
									CHANNELS 3 Zrotation Yrotation Xrotation
									JOINT RightHand
									{
										OFFSET -18.483803 0.000000 0.000001
										CHANNELS 3 Zrotation Yrotation Xrotation
										End Site
										{
											OFFSET 0.000000 0.000000 0.000000
										}
									}
								}
							}
						}
					}
				}
			}
		}
	}
}
MOTION
Frames: 13
Frame Time: 0.033333
-5.761383 36.090096 26.151035 179.816806 7.093250 179.793610 -2.065244 -2.904852 9.131812 -2.160205 6.925506 -27.693029 9.344842 2.539275 33.292299 -7.647227 -5.836908 10.804198 0.000000 0.000000 0.000000 3.314430 -1.106974 5.237349 6.317318 -6.579313 -18.679941 -5.644869 0.421049 17.058630 -0.730692 3.029452 9.323341 0.000000 0.000000 0.000000 1.028817 0.049022 -0.161642 -3.934474 2.038630 -5.620073 0.813455 -2.780786 7.421042 -0.018590 0.065534 -0.069278 0.726487 -1.378893 9.172867 -1.106411 7.490200 16.237733 0.000000 0.000000 0.000000 1.955538 -0.692375 5.753157 -6.116874 -9.641624 -0.430276 -7.222233 -22.284180 12.400875 1.769239 -56.918446 4.918260 0.000000 0.000000 0.000000 -1.191772 0.371799 5.446922 17.711444 16.296075 1.912872 12.096178 18.652623 12.681891 -1.236314 59.944267 -1.103583 0.000000 0.000000 0.000000 
-5.429808 36.028259 26.118750 179.791179 7.725564 179.876597 -1.890706 -2.996414 8.849862 -2.333605 8.726424 -29.272439 9.439333 2.457135 35.512189 -6.459314 -5.761037 12.571989 0.000000 0.000000 0.000000 3.167347 -0.770493 4.771885 7.097193 -6.514328 -17.706015 -5.558186 0.442935 16.312377 -1.033756 2.521630 8.772060 0.000000 0.000000 0.000000 1.015955 0.099590 -0.280640 -4.003957 2.016811 -5.621800 0.780018 -2.837538 7.266070 0.021064 0.105115 -0.028124 0.626138 -1.391547 8.979861 -1.291458 7.687865 15.890420 0.000000 0.000000 0.000000 1.894642 -0.716856 5.610941 -5.816090 -8.842891 -0.894841 -5.297998 -19.226296 9.230332 1.410199 -51.572470 4.510407 0.000000 0.000000 0.000000 -1.217728 0.319536 5.325288 17.289787 15.283182 1.063052 10.556585 16.720327 7.906427 -1.578524 55.337516 -1.436698 0.000000 0.000000 0.000000 
-5.161270 35.976696 25.945738 179.873728 8.095225 179.329895 -1.920394 -2.579475 8.580265 -2.693753 11.051151 -31.023525 9.997761 3.267752 36.633679 -5.540766 -3.983654 12.312797 0.000000 0.000000 0.000000 3.050211 -1.180937 4.787596 7.763306 -6.016452 -16.373835 -5.424901 0.359601 15.764299 -1.041023 2.175512 8.858974 0.000000 0.000000 0.000000 1.015371 0.122397 0.069948 -4.003686 1.948787 -5.459449 0.761271 -2.961170 6.998202 -0.054024 0.070012 0.027934 0.617951 -1.550988 8.719736 -1.182403 7.908246 15.794339 0.000000 0.000000 0.000000 1.900846 -0.726679 5.292659 -5.463604 -7.850793 -1.064325 -3.943543 -15.154856 6.342711 0.998276 -47.648212 4.265636 0.000000 0.000000 0.000000 -1.224594 0.240252 5.070905 16.854463 13.956722 0.174075 9.632786 13.823107 3.516119 -1.705651 51.725856 -1.704776 0.000000 0.000000 0.000000 
-4.937709 35.935406 25.673195 179.867923 8.592897 179.213850 -2.034806 -1.721194 8.253260 -3.600599 13.792679 -33.074628 10.865625 5.540334 37.040526 -4.262285 -2.604249 12.450628 0.000000 0.000000 0.000000 2.866795 -0.969090 4.787217 8.244242 -5.630161 -15.338284 -5.374082 0.421463 15.264853 -1.024256 1.784252 8.591938 0.000000 0.000000 0.000000 0.919505 0.214786 0.127185 -4.018930 1.947741 -5.629365 0.750757 -3.017303 6.824141 -0.006388 0.072615 -0.102994 0.535389 -1.551809 8.591609 -0.980597 8.029094 15.545352 0.000000 0.000000 0.000000 1.811522 -0.791371 5.224836 -5.188566 -6.799309 -1.523651 -3.203457 -10.597919 3.474089 0.511352 -44.837634 4.209796 0.000000 0.000000 0.000000 -1.322710 0.111819 4.926222 16.341251 12.230021 -0.805927 9.185413 10.365857 -0.397371 -1.561781 49.055303 -1.808489 0.000000 0.000000 0.000000 
-4.746284 35.905949 25.328918 179.839414 9.097616 179.410915 -2.168379 -1.458833 8.273200 -4.204498 15.012921 -34.493207 11.324728 6.946830 36.360068 -4.442678 -2.365146 10.616868 0.000000 0.000000 0.000000 2.686763 -0.903633 4.786807 8.635181 -5.339617 -14.570361 -5.342716 0.491067 14.766454 -0.979729 1.387669 8.222195 0.000000 0.000000 0.000000 0.807774 0.289907 -0.079160 -4.069648 1.970737 -5.928879 0.721094 -3.075284 6.693831 0.030341 0.075646 -0.082284 0.607735 -1.622072 8.397578 -0.502249 8.237702 15.152621 0.000000 0.000000 0.000000 1.773746 -0.826897 5.026390 -4.950833 -5.646106 -1.915274 -2.685938 -6.005227 0.095109 0.184175 -42.848372 4.060317 0.000000 0.000000 0.000000 -1.376086 0.060436 4.739292 15.878749 10.456654 -1.757502 8.938818 6.818631 -4.003144 -1.365225 46.762381 -1.902042 0.000000 0.000000 0.000000 
-4.583649 35.887009 24.970366 179.860082 9.449620 179.548926 -2.374112 -1.361797 8.270037 -5.658618 17.790058 -35.919367 11.758761 8.722036 35.655589 -4.278529 -2.213383 9.682375 0.000000 0.000000 0.000000 2.576060 -0.888262 4.914924 8.936213 -5.054631 -13.914911 -5.305143 0.544239 14.453932 -0.888422 1.040443 7.855841 0.000000 0.000000 0.000000 0.774698 0.305372 -0.128068 -4.131575 2.000453 -6.214779 0.709491 -3.116491 6.450551 -0.017371 0.061204 -0.089519 0.621262 -1.714468 8.268929 -0.059118 8.293246 14.805337 0.000000 0.000000 0.000000 1.792737 -0.897837 4.961974 -4.805078 -4.495842 -2.295308 -2.380465 -1.806342 -3.898565 -0.174231 -41.362574 4.009808 0.000000 0.000000 0.000000 -1.335046 -0.010991 4.647008 15.469916 8.598772 -2.915045 8.604249 3.524247 -7.354328 -1.048419 44.642502 -1.863161 0.000000 0.000000 0.000000 
-4.441832 35.875412 24.616608 179.913658 9.726144 179.564198 -2.464224 -1.288862 8.435386 -6.876005 19.382149 -36.908041 12.246446 9.777091 35.447671 -4.033697 -2.111033 9.385028 0.000000 0.000000 0.000000 2.531539 -0.986372 5.158713 9.142100 -4.800066 -13.385596 -5.283788 0.600242 14.286264 -0.793636 0.736605 7.558940 0.000000 0.000000 0.000000 0.803940 0.340673 -0.052001 -4.234013 2.020873 -6.457997 0.716675 -3.214151 6.210506 0.012924 0.050007 -0.103642 0.579398 -1.751451 8.158866 0.397596 8.286924 14.426854 0.000000 0.000000 0.000000 1.754853 -1.009668 4.898802 -4.711164 -3.450039 -2.707291 -2.187258 1.758156 -8.471642 -0.344856 -40.075951 3.822265 0.000000 0.000000 0.000000 -1.366415 -0.179946 4.572142 15.181849 6.807837 -3.996986 8.152381 0.681524 -10.547065 -0.463628 42.614267 -1.480198 0.000000 0.000000 0.000000 
-4.333900 35.870010 24.274168 179.922004 10.004024 179.561862 -2.445667 -1.285089 8.697174 -7.900058 20.270489 -37.450453 12.722339 10.289417 35.445543 -3.813801 -2.155570 9.359871 0.000000 0.000000 0.000000 2.495627 -1.037023 5.440044 9.241745 -4.549110 -13.018665 -5.269202 0.656522 14.201134 -0.665277 0.509685 7.370175 0.000000 0.000000 0.000000 0.916664 0.182885 0.030848 -4.369330 2.061650 -6.657871 0.705806 -3.257966 5.995311 -0.024410 0.069318 -0.104092 0.595300 -1.858385 8.109378 0.882010 8.319503 14.123799 0.000000 0.000000 0.000000 1.777295 -1.065009 4.831303 -4.704514 -2.389358 -3.153713 -2.121876 4.609825 -13.118664 -0.531422 -39.065264 3.677980 0.000000 0.000000 0.000000 -1.311025 -0.249266 4.516431 15.015215 5.182389 -5.134316 7.587086 -1.601475 -13.282991 -0.154612 40.790709 -1.230042 0.000000 0.000000 0.000000 
-4.257756 35.874100 23.965584 179.981550 10.273591 179.520444 -2.369706 -1.250941 8.923537 -8.746798 21.001864 -37.697368 13.490572 10.788167 35.815347 -2.762601 -1.574980 9.349371 0.000000 0.000000 0.000000 2.528658 -1.037044 5.721777 9.274015 -4.305115 -12.729967 -5.251279 0.698648 14.142716 -0.534241 0.344744 7.295814 0.000000 0.000000 0.000000 1.089366 0.295488 0.138078 -4.518402 2.020972 -6.793611 0.732395 -3.410532 5.779088 0.037571 -0.027612 0.037380 0.578830 -1.805216 8.035147 1.396204 8.408879 13.996096 0.000000 0.000000 0.000000 1.686559 -1.060581 4.621004 -4.809806 -1.381068 -3.538859 -2.141208 6.745623 -17.570050 -0.652404 -38.353076 3.421591 0.000000 0.000000 0.000000 -1.399009 -0.260272 4.338779 15.045327 3.810243 -6.054941 6.919625 -3.298799 -16.224810 0.143067 39.270610 -0.876930 0.000000 0.000000 0.000000 
-4.200975 35.886120 23.690874 179.933629 10.688607 179.619154 -2.280582 -1.300865 9.131495 -8.998430 20.992124 -37.478044 13.918811 10.448289 36.029419 -2.642144 -1.859678 8.753516 0.000000 0.000000 0.000000 2.474675 -0.877232 5.894440 9.213162 -4.072795 -12.514041 -5.198510 0.697787 14.105158 -0.393374 0.252827 7.247576 0.000000 0.000000 0.000000 1.210259 0.327387 0.073868 -4.715757 2.057190 -6.885556 0.725420 -3.476330 5.604968 -0.029750 -0.014973 -0.073690 0.568609 -1.918407 8.002297 1.618117 8.320766 13.601957 0.000000 0.000000 0.000000 1.797219 -1.094212 4.593642 -5.036887 -0.441045 -3.939846 -2.158633 8.279434 -21.698198 -0.829785 -38.086501 3.222462 0.000000 0.000000 0.000000 -1.309020 -0.339211 4.369546 15.272769 2.586427 -7.010676 6.243863 -4.425116 -19.382407 0.304038 37.929529 -0.462207 0.000000 0.000000 0.000000 
-4.159483 35.901611 23.465042 179.944954 10.968281 179.655422 -2.179552 -1.435422 9.238900 -9.002993 20.744533 -37.035676 14.288365 10.012433 36.156884 -2.469908 -2.080575 8.228370 0.000000 0.000000 0.000000 2.477830 -0.880282 6.030181 9.142929 -3.873715 -12.238643 -5.143790 0.726469 14.034872 -0.320623 0.174406 7.361645 0.000000 0.000000 0.000000 1.322810 0.378821 0.114730 -4.906349 2.123256 -6.888584 0.787997 -3.512680 5.380368 -0.001067 0.020883 -0.042774 0.585211 -1.973812 7.880933 1.882160 8.285498 13.371165 0.000000 0.000000 0.000000 1.797505 -1.198594 4.445532 -5.372168 0.376214 -4.356795 -2.159346 9.361178 -25.817154 -0.816546 -38.151978 2.798847 0.000000 0.000000 0.000000 -1.313504 -0.423106 4.173974 15.622951 1.508377 -8.005503 5.714702 -5.180964 -23.032617 0.350668 36.963386 -0.043712 0.000000 0.000000 0.000000 
-4.120368 35.920765 23.294054 179.936553 11.243279 179.622364 -2.166695 -1.546951 9.327716 -8.896958 20.388803 -36.567050 14.576551 9.597334 36.238757 -2.359254 -2.307100 7.853717 0.000000 0.000000 0.000000 2.467669 -0.910652 6.165032 9.073211 -3.753892 -11.967805 -5.082287 0.753071 13.962424 -0.309015 0.122093 7.412762 0.000000 0.000000 0.000000 1.385150 0.406142 0.207826 -5.107281 2.190516 -6.818485 0.853074 -3.537921 5.086751 -0.018973 0.043696 -0.062502 0.655340 -2.122243 7.748910 2.060769 8.192696 13.249044 0.000000 0.000000 0.000000 1.934787 -1.301593 4.299606 -5.740691 1.128085 -4.876995 -2.097607 10.232338 -29.894898 -0.978067 -38.524698 2.492797 0.000000 0.000000 0.000000 -1.236052 -0.536702 3.977855 16.067854 0.561736 -9.000662 5.265041 -5.590841 -27.233079 0.239243 36.066230 0.380026 0.000000 0.000000 0.000000 
-4.083571 35.938004 23.155861 179.906377 11.445009 179.664233 -2.183711 -1.664074 9.350392 -8.766124 19.962616 -36.244501 14.818755 9.281510 36.277792 -2.241696 -2.462916 7.580677 0.000000 0.000000 0.000000 2.454875 -0.855366 6.235345 9.011191 -3.667085 -11.800729 -5.031198 0.814354 13.854561 -0.371149 0.079665 7.435438 0.000000 0.000000 0.000000 1.385693 0.411533 0.298910 -5.307945 2.203633 -6.747892 0.940101 -3.589497 4.777293 -0.015501 0.052702 -0.064298 0.814760 -2.305790 7.518893 2.330525 8.150904 13.032436 0.000000 0.000000 0.000000 2.034620 -1.309368 4.040010 -6.187187 1.898015 -5.299738 -2.109665 11.045772 -34.123909 -0.941808 -39.077008 1.893675 0.000000 0.000000 0.000000 -1.166292 -0.554588 3.723084 16.493681 -0.228502 -9.993356 4.995335 -5.851849 -31.828176 -0.063787 35.296922 0.649608 0.000000 0.000000 0.000000 
